<svg width="22" height="23" viewBox="0 0 22 23" fill="none" xmlns="http://www.w3.org/2000/svg">
<mask id="mask0_1762_609" style="mask-type:luminance" maskUnits="userSpaceOnUse" x="0" y="0" width="22" height="23">
<path d="M21.715 0.642578H0.878906V22.3729H21.715V0.642578Z" fill="white"/>
</mask>
<g mask="url(#mask0_1762_609)">
<path fill-rule="evenodd" clip-rule="evenodd" d="M1.07228 10.9283C1.22265 11.4436 1.4804 11.9375 1.86705 12.3884C2.16778 12.7105 2.46851 12.9682 2.8122 13.2044H2.8337V13.2258H2.8552C3.34925 12.732 3.88621 12.281 4.3373 11.9375C5.75501 10.8209 7.34462 9.81168 8.95566 8.88835C8.28977 8.52331 7.6668 8.02946 7.1083 7.42822L1.05078 10.9283H1.07228Z" fill="#4DBE9A"/>
<path fill-rule="evenodd" clip-rule="evenodd" d="M3.60734 18.2935C4.16583 18.8732 4.7673 19.3456 5.4332 19.7321C5.4332 19.6677 5.4332 19.6248 5.4332 19.6462C5.39024 19.7106 6.39984 20.0972 7.06574 20.5051C7.15166 20.0972 7.36649 19.7321 7.62425 19.3671V19.3241L7.66719 19.2812H7.68869L7.71013 19.2168C7.73161 19.1738 7.77459 19.1524 7.79607 19.1094V19.0665L7.86051 19.0235L7.90344 18.9806V18.9376L7.94645 18.9162L7.96788 18.8732V18.8303L8.03232 18.7873V18.7444L8.09676 18.7014L8.13976 18.6585H8.1827L8.2257 18.5941H8.24714C8.24714 18.5941 8.31162 18.5082 8.35458 18.4652H8.39752V18.4223H8.41902C8.41902 18.4223 8.50494 18.3149 8.5479 18.2935H8.56933V18.2505H8.61234V18.2076L8.65527 18.1646H8.69828L8.71971 18.1002H8.76272L8.78415 18.0573L8.82716 18.0143V17.9928H8.87009V17.9714H8.89159L8.91303 17.9284H8.95603L8.97747 17.8855L9.02047 17.8425V17.8211H9.06341V17.7996H9.08491L9.10635 17.7566H9.12785L9.14935 17.7137L9.17079 17.6922V17.6707H9.19229V17.6493H9.21379L9.23529 17.6063H9.25673L9.27823 17.5634L9.29973 17.5419V17.5204H9.32117V17.499H9.34267L9.36417 17.456L9.45004 17.3916L9.47155 17.3701H9.51448V17.3272L9.55749 17.2842H9.57892V17.2628H9.62192L9.66486 17.2198H9.7078L9.7508 17.1554H9.79374L9.83674 17.1124L9.85818 17.091H9.90118V17.048L9.94412 17.0051H9.96562V16.9836H10.0086L10.0515 16.9407H10.0945L10.1374 16.8977H10.1804L10.2234 16.8548L10.2448 16.8333H10.2878L10.3093 16.7904L10.3523 16.7474H10.3952V16.7259H10.4382L10.4811 16.6615H10.5241L10.5671 16.5971L10.5885 16.5756H10.6315V16.5327L10.6744 16.4897H10.696V16.4683H10.7389L10.7818 16.4253H10.8248L10.8678 16.3824H10.9108L10.9537 16.3394V16.318H10.9966L11.0181 16.275L11.0611 16.2321H11.1041H11.147L11.19 16.1677H11.233L11.2759 16.1247L11.2974 16.1032H11.3403V16.0603L11.3833 16.0174H11.4048V15.9959H11.4478L11.4907 15.9529H11.5337L11.5767 15.91H11.6196L11.6625 15.867C10.8248 15.5879 10.0515 15.1799 9.29973 14.7075L3.13477 18.3364L3.60734 18.2935Z" fill="#4DBE9A"/>
<path fill-rule="evenodd" clip-rule="evenodd" d="M1.07237 10.927C1.22273 11.4423 1.48049 11.9362 1.86714 12.3871C2.14638 12.6878 2.44714 12.9454 2.76935 13.1602C1.88865 12.4945 1.84567 10.4761 3.75743 9.35949L7.12989 7.40549L16.1087 2.20909C14.4762 1.24282 12.586 0.663063 10.5668 0.620117C6.09884 2.85328 -0.280905 6.0527 1.07237 10.9055V10.927Z" fill="#4DBE9A"/>
<path fill-rule="evenodd" clip-rule="evenodd" d="M21.7155 11.8516C15.2499 15.0939 0.943803 21.7934 11.7915 22.3732L20.4481 17.37C21.2644 15.8025 21.7155 14.0203 21.7155 12.1092C21.7155 12.0233 21.7155 11.9375 21.7155 11.8516Z" fill="#4DBE9A"/>
<path fill-rule="evenodd" clip-rule="evenodd" d="M2.44654 16.6399C3.45613 18.4007 4.98121 20.0326 7.04334 20.505C5.2175 19.0878 5.00269 17.4988 7.17222 16.2534L21.0487 8.22265C20.5761 6.89135 19.8457 5.68888 18.9436 4.63672C13.1868 7.53553 0.66366 13.5479 2.44654 16.6399Z" fill="#4DBE9A"/>
<path fill-rule="evenodd" clip-rule="evenodd" d="M3.73591 9.38223L7.10836 7.42822L12.3711 4.3791C11.0823 3.28399 9.53566 2.46803 7.83869 2.03857C3.92924 4.16437 -0.0446657 6.99876 1.05084 10.9283C1.2012 11.4436 1.45903 11.9375 1.84568 12.3884C2.12492 12.689 2.42561 12.9467 2.74782 13.1614C1.86712 12.4958 1.82414 10.4773 3.73591 9.36075V9.38223Z" fill="#047C91"/>
<path fill-rule="evenodd" clip-rule="evenodd" d="M11.7909 22.3946C14.2611 20.5695 15.9796 17.778 16.3662 14.5571C9.96502 17.8854 3.45641 21.9437 11.7909 22.3946Z" fill="#047C91"/>
<path fill-rule="evenodd" clip-rule="evenodd" d="M7.17266 16.2317L16.2374 10.9709C15.9367 9.46779 15.3782 8.07208 14.562 6.82666C8.50446 9.9402 1.05075 14.1918 2.44699 16.6182C3.45657 18.379 4.98165 20.0109 7.04378 20.4833C5.21794 19.0661 5.00313 17.4771 7.17266 16.2317Z" fill="#047C91"/>
</g>
</svg>
