<svg width="21" height="23" viewBox="0 0 21 23" fill="none" xmlns="http://www.w3.org/2000/svg">
<path fill-rule="evenodd" clip-rule="evenodd" d="M9.4922 20.1167C9.4922 20.1167 9.49218 20.1811 9.4707 20.2025C10.1581 20.9756 10.8455 21.9848 11.6188 22.264C10.8455 21.9633 10.1796 20.9327 9.4922 20.1167Z" fill="#4DBE9A"/>
<path fill-rule="evenodd" clip-rule="evenodd" d="M20.4049 14.3191V10.5399C19.9752 10.497 19.5456 10.4971 19.1159 10.4971C16.5598 10.4971 14.1324 11.0768 11.9629 12.1075C14.4976 13.7609 16.6887 15.9941 18.1923 18.5493C18.9012 18.1628 19.653 17.7763 20.0826 17.0677C20.5766 16.2303 20.4262 15.2425 20.4262 14.3191H20.4049Z" fill="#047C91"/>
<path fill-rule="evenodd" clip-rule="evenodd" d="M20.4044 14.3194V12.6016C18.4497 12.9022 16.6022 13.5463 14.9268 14.4482C16.1941 15.6721 17.3111 17.0464 18.1918 18.528C18.9007 18.1415 19.6525 17.7765 20.0606 17.0679C20.5547 16.2305 20.4044 15.2427 20.4044 14.3194Z" fill="#4DBE9A"/>
<path fill-rule="evenodd" clip-rule="evenodd" d="M2.18925 10.5186C8.54748 10.5186 14.0894 14.0614 16.9249 19.2578L13.1873 21.4051C12.3925 21.856 11.5977 22.5002 10.6311 22.5002C9.66445 22.5002 8.86967 21.8775 8.07489 21.4266L3.43515 18.764C2.64038 18.3131 1.69517 17.9265 1.2226 17.1106C0.728547 16.2731 0.878968 15.2854 0.878968 14.3621V10.5829C1.30858 10.54 1.73814 10.5399 2.16775 10.5399L2.18925 10.5186Z" fill="#4DBE9A"/>
<path fill-rule="evenodd" clip-rule="evenodd" d="M0.900452 12.6016C6.2491 13.4175 10.7814 16.7672 13.2087 21.4053C12.414 21.8562 11.6192 22.5004 10.6526 22.5004C9.68594 22.5004 8.89115 21.8777 8.09637 21.4053L3.45664 18.7427C2.66186 18.2703 1.71665 17.9054 1.24408 17.0894C0.750031 16.252 0.900452 15.2427 0.900452 14.3194V12.6016Z" fill="#047C91"/>
<path fill-rule="evenodd" clip-rule="evenodd" d="M0.900452 14.1689C4.07957 15.7794 6.65722 18.3561 8.26825 21.5341C8.20381 21.4911 8.16081 21.4697 8.09637 21.4267L3.45664 18.7641C2.66186 18.2917 1.71665 17.9267 1.24408 17.1107C0.750031 16.2733 0.900452 15.2641 0.900452 14.3408V14.1689Z" fill="#4DBE9A"/>
<path fill-rule="evenodd" clip-rule="evenodd" d="M15.7208 9.31611C14.8186 7.42651 12.8639 6.1167 10.63 6.1167C8.39598 6.1167 6.44124 7.44803 5.51758 9.3591C7.2575 9.7456 8.99754 10.4113 10.6086 11.3132C12.1981 10.3899 13.9166 9.70264 15.6995 9.3376L15.7208 9.31611Z" fill="#4DBE9A"/>
<path fill-rule="evenodd" clip-rule="evenodd" d="M10.6303 4.5922C13.6591 4.5922 16.2368 6.46027 17.2893 9.10141C17.9552 9.01552 18.6211 8.97258 19.287 8.97258C19.6522 8.97258 20.0174 8.97262 20.361 9.01557V8.97258C20.361 8.04926 20.5113 7.04011 20.0173 6.22415C19.5447 5.38671 18.5996 5.02163 17.8049 4.57071L13.165 1.90812C12.3702 1.43572 11.5756 0.812988 10.6089 0.812988C9.64231 0.812988 8.84752 1.43572 8.05274 1.90812L3.41288 4.57071C2.6181 5.04311 1.67302 5.40807 1.20045 6.24551C0.72788 7.08294 0.878191 8.07075 0.878191 8.99408V9.03706C1.3078 8.99412 1.73736 8.99408 2.16697 8.99408C2.76842 8.99408 3.36994 9.03699 3.97139 9.10141C5.02394 6.48175 7.60155 4.6137 10.6303 4.6137V4.5922Z" fill="#047C91"/>
</svg>
