<svg width="19" height="20" viewBox="0 0 19 20" fill="none" xmlns="http://www.w3.org/2000/svg">
<path opacity="0.97" fill-rule="evenodd" clip-rule="evenodd" d="M5.87369 0.666025C6.15294 0.666025 6.43218 0.666025 6.71143 0.666025C6.75439 0.70897 6.79735 0.75191 6.84031 0.794856C6.84031 1.28873 6.86179 1.7826 6.90475 2.27648C7.59212 2.06175 8.19358 2.21202 8.66615 2.77031C9.03132 3.39301 9.03132 4.01569 8.66615 4.61693C8.19358 5.17521 7.59212 5.32561 6.90475 5.11089C6.88327 5.60476 6.86179 6.09863 6.84031 6.59251C6.79735 6.63545 6.75439 6.67839 6.71143 6.72134C5.93813 6.76428 5.16483 6.74277 4.41302 6.67835C4.37005 6.59246 4.32709 6.52807 4.30561 6.44218C4.43449 6.22746 4.56339 6.01275 4.67079 5.79803C4.75671 5.15385 4.49893 4.76728 3.83303 4.65991C3.1027 4.81022 2.84494 5.23962 3.03826 5.94822C3.12419 6.07706 3.2101 6.18449 3.29602 6.29186C3.36046 6.46364 3.29602 6.61397 3.16714 6.72134C2.39384 6.76428 1.62055 6.74277 0.868727 6.67835C0.782805 6.59246 0.739854 6.46368 0.761334 6.33484C0.890217 4.10169 1.8998 2.42676 3.81156 1.31018C4.47746 0.966616 5.16484 0.751895 5.89518 0.644531L5.87369 0.666025Z" fill="white"/>
<path opacity="0.92" fill-rule="evenodd" clip-rule="evenodd" d="M9.18016 0.666025C9.28756 0.666025 9.41644 0.666025 9.52384 0.666025C9.58828 0.70897 9.63125 0.773425 9.65273 0.837843C9.67422 1.39613 9.67422 1.95433 9.65273 2.49115C9.52385 2.6844 9.352 2.72735 9.13719 2.61998C9.09423 2.57704 9.05127 2.5341 9.05127 2.49115C9.02979 1.93286 9.02979 1.37466 9.05127 0.837843C9.09423 0.773425 9.1372 0.708949 9.18016 0.644531V0.666025Z" fill="white"/>
<path fill-rule="evenodd" clip-rule="evenodd" d="M5.97964 1.26697H6.23741C6.23741 1.8682 6.23741 2.4695 6.30185 3.07073C6.36629 3.13515 6.43074 3.17807 6.53814 3.17807C6.75294 3.0707 6.96775 2.96338 7.16108 2.81307C7.95586 2.72718 8.34251 3.09221 8.32103 3.8867C8.1277 4.42352 7.74105 4.63824 7.16108 4.55235C6.96775 4.42352 6.75294 4.29472 6.53814 4.18735C6.45222 4.18735 6.36629 4.23027 6.30185 4.29469C6.23741 4.89592 6.23741 5.49709 6.23741 6.09832C5.87224 6.09832 5.52856 6.09841 5.18487 6.05547C5.46412 5.06772 5.12043 4.42345 4.17529 4.07988C3.2731 3.92958 2.65017 4.29461 2.34944 5.15352C2.30648 5.47561 2.34944 5.77623 2.41388 6.09832H1.4043C1.57614 4.18725 2.4998 2.77008 4.1538 1.82528C4.75526 1.52466 5.35671 1.3315 6.00113 1.24561L5.97964 1.26697Z" fill="#F2675C"/>
<path opacity="0.91" fill-rule="evenodd" clip-rule="evenodd" d="M13.3905 1.76112C13.6912 1.71818 13.8416 1.86849 13.8201 2.16911C13.5624 2.66298 13.2831 3.13532 12.9609 3.58625C12.6172 3.67214 12.4669 3.54332 12.4883 3.19976C12.7246 2.74883 12.9824 2.31941 13.2402 1.88995C13.2831 1.84701 13.3261 1.80409 13.369 1.78262L13.3905 1.76112Z" fill="white"/>
<path opacity="0.97" fill-rule="evenodd" clip-rule="evenodd" d="M9.30854 3.50049C11.607 3.58638 13.3469 4.61707 14.5068 6.59256C15.4305 8.5251 15.3875 10.4146 14.3565 12.2827C13.8409 13.1202 13.1535 13.7858 12.2943 14.3012C12.144 14.4085 12.0366 14.5589 11.9721 14.7307C11.9721 15.3534 11.9506 15.9976 11.8862 16.6203C11.7573 16.9424 11.5425 17.1571 11.2203 17.3074C11.1773 18.016 10.8122 18.4883 10.1248 18.7245C9.6737 18.789 9.22261 18.789 8.77152 18.7675C7.99822 18.5958 7.56862 18.1234 7.4827 17.3074C7.09605 17.1356 6.85976 16.8564 6.79532 16.427C6.79532 15.8257 6.77384 15.2246 6.7094 14.6233C6.62347 14.516 6.53756 14.4085 6.43015 14.3012C4.53987 13.1202 3.59472 11.4238 3.57324 9.19067C3.59472 9.12625 3.63768 9.06193 3.70212 9.01898C4.19617 8.97604 4.69023 8.95448 5.18428 8.93301C4.96948 8.0741 5.22724 7.42989 6.02202 7.02191C6.88124 6.74276 7.54713 6.97902 7.99822 7.75204C8.14859 8.13855 8.17007 8.52501 8.06266 8.91152C8.38487 8.95446 8.70708 8.9545 9.05076 8.9545C9.05076 8.35327 9.05078 7.77347 9.11522 7.17223C9.2441 7.06487 9.37298 7.02197 9.54482 7.08639C10.0174 7.55879 10.49 7.55879 10.9625 7.08639C11.2848 6.42074 11.1129 5.96978 10.4255 5.71211C10.0604 5.66916 9.75962 5.79807 9.52334 6.05574C9.37297 6.09869 9.24409 6.05566 9.13669 5.96977C9.07225 5.2397 9.05077 4.4882 9.09373 3.73666C9.15818 3.62929 9.22262 3.54343 9.33002 3.50049H9.30854Z" fill="white"/>
<path fill-rule="evenodd" clip-rule="evenodd" d="M9.95307 4.18751H9.6953C9.6953 4.5096 9.69529 4.85308 9.73825 5.17517C9.73825 5.17517 9.73826 5.21816 9.6953 5.21816C9.65234 4.87459 9.65234 4.50958 9.65234 4.16602C9.75975 4.16602 9.86715 4.16593 9.95307 4.20887V4.18751Z" fill="#7C6B2B"/>
<path fill-rule="evenodd" clip-rule="evenodd" d="M9.95307 4.18752C12.3159 4.55255 13.7981 5.88383 14.421 8.18141C14.4854 8.46055 14.5284 8.73973 14.5069 9.01887C13.927 9.01887 13.347 9.01887 12.767 9.01887C12.5522 9.2336 12.5737 9.44828 12.8315 9.64153C13.1537 10.3072 12.9603 10.7795 12.2944 11.0587C11.7574 11.1231 11.3923 10.887 11.2204 10.3502C11.1989 10.1784 11.2204 10.028 11.2634 9.85621C11.3278 9.68443 11.4352 9.5342 11.5641 9.40537C11.6071 9.25506 11.5641 9.1476 11.4782 9.04024C10.8982 8.97582 10.2968 8.95441 9.6953 8.97589C9.67382 8.61085 9.69529 8.2888 9.75974 7.94524C10.7049 8.15997 11.3708 7.79482 11.693 6.89297C11.8219 5.94817 11.4567 5.34699 10.533 5.06784C10.2538 5.0249 9.97454 5.0679 9.6953 5.13232C9.65234 4.81023 9.65234 4.48809 9.65234 4.14453H9.9101L9.95307 4.18752Z" fill="#FBD82B"/>
<path opacity="0.91" fill-rule="evenodd" clip-rule="evenodd" d="M16.4617 4.78857C16.7839 4.78857 16.9127 4.96031 16.8268 5.2824C16.3757 5.58302 15.9246 5.88369 15.4521 6.14136C15.1943 6.20578 15.0439 6.09839 15.001 5.84071C15.001 5.73335 15.0439 5.64747 15.1084 5.58305C15.5595 5.32538 16.0106 5.06774 16.4617 4.81007V4.78857Z" fill="white"/>
<path fill-rule="evenodd" clip-rule="evenodd" d="M9.02941 9.59842C9.02941 9.94199 9.0294 10.2856 8.98644 10.6077C8.12721 10.3715 7.4828 10.6507 7.07467 11.4452C6.79542 12.4759 7.16059 13.1629 8.1487 13.5065C8.42794 13.5279 8.70719 13.5065 8.98644 13.4421C9.0294 14.0863 9.02941 14.7519 9.02941 15.3961H7.39688C7.4828 14.9022 7.3754 14.4513 7.07467 14.0433C6.6021 13.6997 6.15101 13.3347 5.69992 12.9696C4.77626 12.0249 4.28221 10.9083 4.19629 9.59842C4.79774 9.59842 5.37771 9.59849 5.97916 9.53407C6.08656 9.42671 6.10804 9.29789 6.06508 9.14758C5.57103 8.63224 5.59253 8.13834 6.12954 7.64447C6.77395 7.36532 7.22504 7.53712 7.50429 8.20278C7.54725 8.56781 7.43984 8.88991 7.16059 9.14758C7.11763 9.29789 7.1606 9.42671 7.24652 9.53407C7.82649 9.59849 8.42795 9.59842 9.02941 9.59842Z" fill="#6FB1E1"/>
<path fill-rule="evenodd" clip-rule="evenodd" d="M9.75974 7.98817C9.69529 8.31026 9.65234 8.65389 9.6953 8.99745C9.65234 8.65389 9.65234 8.28888 9.65234 7.94531C9.6953 7.94531 9.73826 7.94522 9.75974 7.98817Z" fill="#78682A"/>
<path opacity="0.92" fill-rule="evenodd" clip-rule="evenodd" d="M0.953073 8.93311C1.49009 8.93311 2.0271 8.93311 2.56411 8.93311C2.75744 9.01901 2.82187 9.16934 2.77891 9.36259C2.75743 9.44849 2.69299 9.51294 2.60707 9.53441C2.04857 9.55589 1.46861 9.55589 0.910119 9.53441C0.652353 9.31969 0.673826 9.10488 0.953073 8.91162V8.93311Z" fill="white"/>
<path opacity="0.92" fill-rule="evenodd" clip-rule="evenodd" d="M16.2043 8.93311C16.6983 8.93311 17.2139 8.93311 17.7079 8.93311C17.9442 8.99753 18.0301 9.14791 17.9442 9.40558C17.9013 9.44853 17.8583 9.49147 17.8153 9.53441C17.2353 9.55589 16.6554 9.55589 16.0754 9.53441C15.9036 9.3841 15.8821 9.21232 15.9895 8.9976C16.0539 8.97612 16.1184 8.93309 16.1828 8.91162L16.2043 8.93311Z" fill="white"/>
<path fill-rule="evenodd" clip-rule="evenodd" d="M9.0293 9.62012C9.07226 9.96368 9.07226 10.3072 9.0293 10.6723C9.00782 10.6723 8.98633 10.6723 8.98633 10.6294C9.02929 10.2858 9.0293 9.96368 9.0293 9.62012Z" fill="#325C7D"/>
<path fill-rule="evenodd" clip-rule="evenodd" d="M11.3494 14.7091C11.3064 14.9453 11.3064 15.1816 11.3064 15.4178H9.67388C9.67388 14.5374 9.67389 13.6571 9.63093 12.7767C9.56649 12.5834 9.41612 12.5189 9.22279 12.5619C8.70726 13.0343 8.21322 13.0343 7.74065 12.5619C7.43992 11.9392 7.61175 11.4882 8.21321 11.1876C8.59986 11.1017 8.92206 11.1876 9.20131 11.4882C9.35167 11.5741 9.48056 11.5527 9.58796 11.4239C9.6524 10.8227 9.6739 10.2214 9.65242 9.62013C10.0176 9.62013 10.3613 9.62017 10.705 9.66311C10.4472 10.5435 10.7479 11.2091 11.5642 11.5956C12.4234 11.8318 13.0463 11.5526 13.4759 10.7796C13.6478 10.4146 13.6478 10.0281 13.4759 9.64162C13.8196 9.59867 14.1633 9.59863 14.507 9.59863C14.4211 10.9299 13.9055 12.068 12.9604 13.0128C12.5308 13.3779 12.0797 13.7214 11.6286 14.0435C11.4783 14.2367 11.3708 14.4514 11.3494 14.6876V14.7091Z" fill="#7BC361"/>
<path opacity="0.91" fill-rule="evenodd" clip-rule="evenodd" d="M3.33763 12.3687C3.65984 12.3687 3.78872 12.5404 3.70279 12.8625C3.65983 12.9054 3.61688 12.9484 3.57392 12.9913C3.18727 13.206 2.77913 13.4423 2.41397 13.6785C2.11324 13.8073 1.94139 13.7214 1.87695 13.4208C1.87695 13.3134 1.91992 13.2275 1.98436 13.1631C2.43545 12.9055 2.90802 12.6477 3.33763 12.39V12.3687Z" fill="white"/>
<path opacity="0.91" fill-rule="evenodd" clip-rule="evenodd" d="M15.2162 12.3687C15.3451 12.3687 15.4525 12.4116 15.5599 12.4545C15.9465 12.6907 16.3332 12.9269 16.7198 13.1416C16.8487 13.292 16.8702 13.4422 16.7843 13.614C16.6769 13.7213 16.5694 13.7429 16.4191 13.7C15.925 13.4423 15.4525 13.1631 15.0014 12.841C14.9369 12.6048 15.0014 12.4545 15.2162 12.3472V12.3687Z" fill="white"/>
<path fill-rule="evenodd" clip-rule="evenodd" d="M9.63086 12.7769C9.67382 13.6572 9.67381 14.5376 9.67381 15.418H11.3063C11.3063 15.1818 11.3063 14.924 11.3493 14.7093V15.4609H9.65234V12.7769H9.63086Z" fill="#396732"/>
<path opacity="0.96" fill-rule="evenodd" clip-rule="evenodd" d="M14.8939 13.807C16.4191 13.7426 17.4931 14.4082 18.116 15.761C18.5671 17.264 18.1805 18.488 16.9346 19.4328C16.1398 19.9052 15.3021 20.0341 14.3999 19.8193C12.8748 19.261 12.123 18.1874 12.1874 16.5554C12.4452 15.0094 13.3473 14.0861 14.8939 13.807Z" fill="white"/>
<path fill-rule="evenodd" clip-rule="evenodd" d="M14.7437 14.4299C16.2903 14.2796 17.2569 14.9453 17.6651 16.4269C17.7725 17.8656 17.1495 18.7889 15.7963 19.2398C14.5074 19.4331 13.5623 18.9607 12.9823 17.7797C12.5312 16.3195 12.9823 15.2459 14.3571 14.5588C14.4859 14.5158 14.6148 14.4729 14.7437 14.4299Z" fill="#6DB1E1"/>
<path fill-rule="evenodd" clip-rule="evenodd" d="M16.3543 15.2032C16.7839 15.1388 17.0632 15.3105 17.235 15.697C17.278 15.8903 17.235 16.0835 17.1706 16.2553C16.4617 17.0283 15.7099 17.7583 14.9151 18.4669C14.6359 18.5743 14.3566 18.5314 14.1203 18.3596C13.7981 17.9516 13.4759 17.5436 13.1537 17.1356C12.9819 16.6847 13.1108 16.3412 13.5404 16.1265C13.9055 16.0406 14.1848 16.1479 14.3781 16.4485C14.464 16.5559 14.55 16.6633 14.6359 16.7921C15.1085 16.3197 15.581 15.8473 16.0536 15.3749C16.1395 15.3104 16.2254 15.2676 16.3114 15.2032H16.3543Z" fill="white"/>
<path fill-rule="evenodd" clip-rule="evenodd" d="M9.00851 13.4638C9.00851 13.4638 9.00851 13.4209 9.05147 13.4209C9.09443 14.108 9.09444 14.7737 9.09444 15.4608C8.53595 15.4608 7.97744 15.4608 7.44043 15.4178H9.07295C9.07295 14.7522 9.07296 14.1079 9.03 13.4638H9.00851Z" fill="#356082"/>
<path fill-rule="evenodd" clip-rule="evenodd" d="M16.5053 15.8042C16.6342 15.8042 16.6772 15.8472 16.6342 15.9545C15.9898 16.5987 15.3454 17.2428 14.6795 17.9085C14.5936 17.93 14.5291 17.9085 14.4647 17.8441C14.1854 17.5006 13.9062 17.1356 13.6484 16.792C13.6914 16.7276 13.7558 16.706 13.8418 16.7275C14.0351 16.9852 14.2499 17.2429 14.4432 17.4791C14.5291 17.5221 14.6365 17.5435 14.7439 17.522C15.3454 16.9637 15.9254 16.4054 16.4839 15.8042H16.5053Z" fill="#E6EBED"/>
<path fill-rule="evenodd" clip-rule="evenodd" d="M7.39717 16.062H11.2851C11.2851 16.2553 11.2851 16.427 11.1992 16.5988C11.1563 16.6418 11.1133 16.6847 11.0703 16.6847C10.4904 16.7276 9.9104 16.7492 9.33042 16.7492H7.6979C7.44013 16.5988 7.33273 16.3841 7.39717 16.062Z" fill="#B3D1D7"/>
<path fill-rule="evenodd" clip-rule="evenodd" d="M8.1709 17.3506H10.5552C10.5552 17.6512 10.4264 17.8873 10.1686 18.0591C10.1041 18.102 10.0182 18.1236 9.9323 18.1236C9.52417 18.145 9.11605 18.145 8.7294 18.1236C8.36423 17.9947 8.19238 17.7371 8.1709 17.3506Z" fill="#99B8C2"/>
</svg>
