<svg width="21" height="21" viewBox="0 0 21 21" fill="none" xmlns="http://www.w3.org/2000/svg">
<path opacity="0.98" fill-rule="evenodd" clip-rule="evenodd" d="M20.2104 6.31C20.2748 7.491 19.8237 8.41427 18.8571 9.07993C18.6638 9.18729 18.4705 9.27317 18.2772 9.33759V14.4911C19.2867 14.8561 19.9097 15.5647 20.146 16.6169C20.3608 18.2917 19.6734 19.4298 18.0838 20.0311C16.795 20.3102 15.721 19.9451 14.9047 18.9145C14.7543 18.6783 14.6469 18.442 14.561 18.1843H9.4057C9.08349 19.1291 8.43909 19.7304 7.47246 20.0096C6.22659 20.2887 5.19552 19.9451 4.37926 19.0003C3.58449 17.8408 3.56296 16.6599 4.33626 15.4789C4.55107 15.1997 4.78737 14.9635 5.08809 14.7702C4.40072 12.0647 3.71336 9.33768 3.02598 6.61065C3.02598 6.5677 2.98302 6.52465 2.96154 6.50318C1.65123 6.03078 0.963852 5.10748 0.87793 3.71176C1.02829 1.92952 2.01637 0.963285 3.79925 0.791504C5.38881 0.898867 6.35544 1.71477 6.69913 3.28228C9.36272 3.90499 12.0478 4.48476 14.7329 5.04305C14.7759 5.04305 14.8188 5.04303 14.8403 5.02156C15.6565 3.90498 16.7306 3.49711 18.0838 3.79773C19.2868 4.20571 19.9956 5.04311 20.2104 6.31ZM18.2342 6.39584C18.2342 7.23328 17.8476 7.59835 17.0098 7.51246C16.3224 7.14743 16.1935 6.65351 16.5802 5.98786C17.0957 5.53693 17.6113 5.57996 18.0623 6.07383C18.1053 6.18119 18.1698 6.28848 18.2127 6.39584H18.2342ZM18.2342 16.9605C18.2986 17.5403 18.0623 17.9267 17.5038 18.12C16.8379 18.1844 16.4298 17.8838 16.3224 17.2182C16.4943 16.4022 16.9883 16.1445 17.7616 16.4022C17.9764 16.5525 18.1268 16.7458 18.2127 16.9605H18.2342ZM16.3439 9.3161V14.4696C15.4632 14.7702 14.8832 15.35 14.5825 16.2304H9.4272C9.4272 16.2304 9.4057 16.0586 9.34126 15.9727C11.5967 13.7181 13.8521 11.4634 16.0861 9.20876C16.1506 9.27318 16.2365 9.29473 16.3439 9.29473V9.3161ZM14.6685 7.77013C12.4345 10.0248 10.179 12.3008 7.92354 14.5554C7.62281 14.4051 7.3221 14.3194 6.99989 14.2764C6.35548 11.6353 5.68959 8.97265 5.00222 6.35299C5.53923 6.11679 5.94735 5.75173 6.26956 5.25786C8.97611 5.79468 11.6826 6.37441 14.3892 6.97565C14.4322 7.25479 14.5396 7.51245 14.6685 7.77013ZM7.66578 17.1752C7.49394 18.0341 6.9784 18.2917 6.18362 17.9697C5.68957 17.4973 5.64659 17.0034 6.09768 16.4665C6.59173 16.1444 7.06434 16.2089 7.47246 16.6169C7.57987 16.7886 7.6443 16.9604 7.66578 17.1537V17.1752ZM4.7659 3.6689C4.6585 4.3775 4.25035 4.69957 3.54149 4.59221C2.8756 4.29159 2.70377 3.81912 3.02598 3.17494C3.43411 2.72401 3.88523 2.65967 4.40077 2.98176C4.59409 3.17501 4.72294 3.41112 4.7659 3.69026V3.6689Z" fill="#E7A83E"/>
</svg>
