<svg width="21" height="21" viewBox="0 0 21 21" fill="none" xmlns="http://www.w3.org/2000/svg">
<mask id="mask0_1762_832" style="mask-type:luminance" maskUnits="userSpaceOnUse" x="0" y="0" width="21" height="21">
<path d="M20.2114 0.791992H0.878906V20.1174H20.2114V0.791992Z" fill="white"/>
</mask>
<g mask="url(#mask0_1762_832)">
<path opacity="0.92" fill-rule="evenodd" clip-rule="evenodd" d="M9.68596 1.07127C11.6837 0.92096 13.531 1.35034 15.2709 2.33808C15.4857 2.42397 15.5716 2.59582 15.5072 2.81055C15.4212 2.93939 15.2924 2.98233 15.142 2.93938C12.9295 1.62955 10.5667 1.30741 8.07492 1.95159C7.62383 2.08043 7.19419 2.25228 6.76458 2.42406C6.48533 2.35964 6.39944 2.1879 6.52832 1.93023C7.51643 1.45783 8.54745 1.15716 9.64296 1.07127H9.68596Z" fill="white"/>
<path opacity="0.96" fill-rule="evenodd" clip-rule="evenodd" d="M3.34925 1.3506C4.31587 1.24323 5.11066 1.56524 5.71212 2.33825C6.24913 3.19716 6.29211 4.05612 5.79806 4.9365C5.1966 5.81688 4.38036 6.16044 3.32781 6.01013C1.95306 5.62362 1.33007 4.70037 1.45895 3.2617C1.69524 2.23101 2.33969 1.58677 3.37075 1.3291L3.34925 1.3506ZM2.85524 2.89657C3.17745 2.87509 3.39223 3.00393 3.49963 3.30455C3.45667 3.49781 3.34926 3.58378 3.15593 3.51936C3.09149 3.47641 3.02706 3.45486 2.96261 3.43338C2.87669 3.4978 2.76926 3.51938 2.66186 3.54085C2.46853 3.49791 2.40414 3.39047 2.4471 3.19721C2.55451 3.04691 2.68337 2.93951 2.83374 2.89657H2.85524ZM4.44478 2.89657C4.76698 2.87509 4.98176 3.00393 5.08917 3.30455C5.08917 3.45486 4.98177 3.54083 4.83141 3.51936C4.74549 3.51936 4.6381 3.45483 4.57365 3.41189C4.50921 3.43336 4.44478 3.47639 4.38034 3.49786C4.12257 3.54081 4.01518 3.43339 4.05814 3.17572C4.14406 3.02541 4.29441 2.91802 4.44478 2.87507V2.89657ZM2.89818 4.24935C2.89818 4.24935 3.02705 4.24935 3.09149 4.24935C3.1989 4.42114 3.30631 4.59301 3.43519 4.74332C3.88628 4.93657 4.18699 4.78615 4.35884 4.35669C4.46624 4.22786 4.59511 4.20647 4.74547 4.31384C4.83139 4.6574 4.724 4.91508 4.42327 5.12981C3.8433 5.4519 3.32779 5.36591 2.89818 4.89351C2.76929 4.72173 2.74779 4.52858 2.81224 4.33533C2.8552 4.31386 2.8767 4.2923 2.89818 4.24935Z" fill="white"/>
<path opacity="0.97" fill-rule="evenodd" clip-rule="evenodd" d="M16.7528 1.35014C17.2254 1.26425 17.5046 1.47902 17.5905 1.92994C17.4831 2.42381 17.3542 2.91756 17.2468 3.41143C17.2468 3.47585 17.2683 3.5403 17.3327 3.58325C17.9772 3.58325 18.6431 3.60476 19.2875 3.62624C19.4164 3.64771 19.5237 3.71208 19.6096 3.84091C19.717 4.18447 19.6096 4.42071 19.2445 4.54955C19.5237 4.78575 19.5452 5.04337 19.2875 5.30104C19.2015 5.34398 19.0941 5.38703 18.9867 5.40851C19.2874 5.66618 19.2874 5.94531 18.9867 6.20299C18.8793 6.24593 18.7934 6.26736 18.686 6.28883C18.9437 6.43914 19.0082 6.67533 18.9008 6.95448C18.8364 7.0189 18.7719 7.08335 18.686 7.1263C18.2134 7.16924 17.7408 7.19065 17.2468 7.19065C16.8172 7.19065 16.3876 7.19065 15.958 7.19065C15.958 7.19065 15.9365 7.14777 15.915 7.1263C15.958 6.09561 15.958 5.0434 15.915 3.99124C15.8721 3.84093 15.8076 3.7336 15.7002 3.62624C15.8076 3.45446 15.915 3.30419 16.0224 3.13241C16.1513 2.66001 16.2802 2.16604 16.4091 1.69364C16.495 1.56481 16.6024 1.45754 16.7313 1.39313L16.7528 1.35014Z" fill="white"/>
<path opacity="0.96" fill-rule="evenodd" clip-rule="evenodd" d="M14.412 3.8197C14.7128 3.8197 15.0135 3.8197 15.3143 3.8197C15.3572 3.86265 15.4002 3.90559 15.4431 3.94853C15.4646 4.93628 15.4646 5.94552 15.4431 6.93327C15.4217 6.99769 15.3572 7.04063 15.3143 7.0621C15.0135 7.08357 14.7128 7.08357 14.412 7.0621C14.3476 7.0621 14.3047 6.99769 14.2832 6.93327C14.2617 5.967 14.2402 5.00078 14.2402 4.03451C14.2617 3.92714 14.3261 3.86276 14.412 3.79834V3.8197Z" fill="white"/>
<path opacity="0.92" fill-rule="evenodd" clip-rule="evenodd" d="M2.18939 6.24597C2.42568 6.20303 2.55457 6.28893 2.59753 6.52513C2.1894 7.40551 1.93169 8.32892 1.78132 9.29519C1.67392 10.3259 1.71683 11.378 1.93164 12.3873C2.10348 13.0314 2.29683 13.6542 2.55459 14.2769C2.55459 14.4486 2.46868 14.5345 2.29684 14.5345C2.21091 14.5345 2.12496 14.513 2.06052 14.4486C1.15833 12.4945 0.922098 10.4547 1.37319 8.32889C1.52355 7.64176 1.75979 6.99751 2.06052 6.3748C2.10348 6.33186 2.16791 6.26755 2.18939 6.22461V6.24597Z" fill="white"/>
<path opacity="0.92" fill-rule="evenodd" clip-rule="evenodd" d="M19.0518 7.44861C19.2022 7.42714 19.3311 7.44871 19.4385 7.55608C19.8896 8.97327 19.9969 10.4333 19.7821 11.8935C19.7177 12.28 19.6318 12.6666 19.5244 13.0531C19.4169 13.1604 19.2881 13.2033 19.1377 13.1389C19.0518 13.0745 19.0088 12.9886 18.9873 12.9028C19.4384 11.1635 19.4384 9.44556 18.9443 7.70627C18.9443 7.59891 18.9659 7.49166 19.0518 7.42725V7.44861Z" fill="white"/>
<path opacity="0.95" fill-rule="evenodd" clip-rule="evenodd" d="M7.83843 8.0928C8.48285 8.00691 8.86949 8.28595 8.97689 8.93013C8.80505 9.70315 8.35401 9.93936 7.62368 9.61727C7.25851 9.27371 7.19405 8.88723 7.40886 8.4363C7.51626 8.28599 7.66659 8.17869 7.83843 8.0928Z" fill="white"/>
<path opacity="0.96" fill-rule="evenodd" clip-rule="evenodd" d="M10.2665 8.09266C10.782 8.00677 11.1257 8.19991 11.3405 8.65084C11.4479 9.10177 11.2976 9.46689 10.9109 9.68162C10.4169 9.8534 10.0302 9.72458 9.75097 9.29513C9.57912 8.73684 9.75095 8.35033 10.2665 8.09266Z" fill="white"/>
<path opacity="0.95" fill-rule="evenodd" clip-rule="evenodd" d="M12.6717 8.09278C13.1872 8.00689 13.5309 8.20004 13.7457 8.65096C13.8531 9.16631 13.6599 9.50987 13.1873 9.7246C12.5429 9.83196 12.1562 9.55294 12.0488 8.90876C12.0918 8.52225 12.2851 8.24307 12.6503 8.07129L12.6717 8.09278Z" fill="white"/>
<path opacity="0.96" fill-rule="evenodd" clip-rule="evenodd" d="M7.88151 10.2188C8.18224 10.2188 8.50441 10.2402 8.78365 10.3476C8.82662 10.3476 8.84811 10.3905 8.86959 10.4119C8.35406 10.9702 8.16076 11.6145 8.28964 12.366C8.37557 12.5163 8.46143 12.6451 8.56884 12.7525C8.03182 12.7955 7.49483 12.7525 6.9793 12.6452C6.39932 12.5163 6.1845 12.1513 6.35635 11.5715C6.59263 10.82 7.10821 10.3691 7.88151 10.2188Z" fill="white"/>
<path opacity="0.97" fill-rule="evenodd" clip-rule="evenodd" d="M10.3087 10.2184C11.4042 10.1969 12.07 10.7122 12.3278 11.7644C12.4137 12.1509 12.2634 12.4301 11.8982 12.5804C11.2753 12.7736 10.6309 12.8381 9.96497 12.7737C8.65466 12.6663 8.35392 12.0435 9.08426 10.9484C9.40647 10.5619 9.81462 10.3258 10.3087 10.2399V10.2184Z" fill="white"/>
<path opacity="0.96" fill-rule="evenodd" clip-rule="evenodd" d="M12.7147 10.2184C13.8317 10.1969 14.4976 10.7123 14.7339 11.8074C14.8198 12.1509 14.6909 12.4085 14.3687 12.5374C13.7673 12.7736 13.1228 12.8381 12.4784 12.7737C12.7792 12.4945 12.8865 12.1509 12.8006 11.7429C12.7147 11.249 12.4999 10.8196 12.1777 10.4331C12.1777 10.3901 12.2206 10.3687 12.2636 10.3687C12.414 10.3258 12.5644 10.2829 12.7147 10.2399V10.2184Z" fill="white"/>
<path opacity="0.98" fill-rule="evenodd" clip-rule="evenodd" d="M14.9922 14.1693C15.6581 14.1264 16.1736 14.4055 16.4958 14.9853C16.5818 15.0497 16.6677 15.0497 16.7322 14.9853C17.1403 14.3197 17.7203 14.0835 18.4936 14.2553C19.4387 14.5345 19.7824 15.1572 19.5676 16.1234C19.4602 16.5099 19.2669 16.8535 19.0306 17.1756C18.3432 18.0559 17.5699 18.8289 16.7107 19.5375C16.6462 19.559 16.5603 19.559 16.4958 19.5375C15.9588 19.0651 15.4433 18.5927 14.9278 18.0774C14.6056 17.7338 14.3048 17.3474 14.0256 16.9394C13.8752 16.6817 13.7464 16.4026 13.6605 16.1019C13.4457 15.0068 13.8967 14.3626 14.9922 14.1693Z" fill="white"/>
<path opacity="0.97" fill-rule="evenodd" clip-rule="evenodd" d="M1.80313 15.2002C3.32825 15.2002 4.87488 15.2002 6.4 15.2002C6.63628 15.2217 6.76515 15.372 6.78663 15.5867C6.80811 16.4456 6.80811 17.3045 6.78663 18.142C6.76515 18.3567 6.63624 18.4855 6.42143 18.5285C5.24 18.5285 4.08009 18.5499 2.89866 18.5928C2.81274 18.7216 2.72681 18.8505 2.6194 18.9793C2.55496 19.0652 2.46907 19.1297 2.38315 19.1726C2.27575 19.1726 2.21129 19.1082 2.16833 19.0223C2.16833 18.872 2.14685 18.7217 2.16833 18.5714C1.99649 18.5714 1.80316 18.5714 1.63132 18.507C1.5454 18.464 1.45946 18.3996 1.4165 18.2923C1.39502 17.326 1.39502 16.3812 1.4165 15.4149C1.50242 15.2646 1.60985 15.1787 1.7817 15.1572L1.80313 15.2002ZM2.89866 16.5959C3.19939 16.6388 3.3068 16.7892 3.17792 17.0898C3.02756 17.2401 2.87714 17.2401 2.72678 17.0898C2.68382 17.0039 2.66236 16.8965 2.68384 16.7892C2.74829 16.7248 2.81274 16.6603 2.89866 16.5959ZM4.08006 16.5959C4.35931 16.6388 4.44524 16.7892 4.35932 17.0468C4.10156 17.2616 3.92969 17.2186 3.80081 16.8965C3.84377 16.7462 3.92975 16.6388 4.05863 16.5959H4.08006ZM5.21853 16.5959C5.51926 16.6388 5.62667 16.7892 5.49779 17.0898C5.34742 17.2401 5.19708 17.2401 5.04671 17.0898C4.98227 17.0039 4.9823 16.8965 5.00378 16.7892C5.06822 16.7248 5.13261 16.6603 5.21853 16.5959Z" fill="white"/>
<path opacity="0.92" fill-rule="evenodd" clip-rule="evenodd" d="M14.1975 18.4424C14.5412 18.4853 14.6271 18.6572 14.4553 18.9578C12.3717 19.8812 10.2236 20.0744 7.98962 19.4947C7.75333 19.3443 7.75335 19.1511 7.94668 18.9578C7.98964 18.9578 8.05403 18.9578 8.09699 18.9578C10.1806 19.4947 12.2213 19.3443 14.176 18.4639L14.1975 18.4424Z" fill="white"/>
</g>
</svg>
