<svg width="72" height="96" viewBox="0 0 72 96" fill="none" xmlns="http://www.w3.org/2000/svg">
<path fill-rule="evenodd" clip-rule="evenodd" d="M40.4024 83.1439C40.4024 78.5192 40.4024 64.3407 40.4024 64.3407L40.3618 64.3407C39.6719 65.9026 38.5761 67.2413 37.1353 68.4178C34.3349 70.2636 30.8852 70.5679 26.7455 69.3914C23.032 68.3366 19.5823 65.9837 16.4166 62.4949C13.3931 59.006 11.8711 54.4624 11.8711 48.8032L11.8711 7.30217L5.96599 -5.36665e-05L-3.43782e-06 7.22103L-1.39588e-06 53.935C-1.06073e-06 61.6024 2.47569 68.9046 10.9377 74.1379L35.4104 85.0912C35.4307 85.1115 40.4024 87.7687 40.4024 83.1439ZM31.6157 22.6571L21.6927 18.1947L21.6927 51.6429C21.6927 54.3001 22.0985 56.146 22.9711 57.0182C24.3104 58.3569 25.5889 59.1683 26.8673 59.5537C29.0792 60.2028 30.5402 59.6348 31.2708 57.8093L31.5954 56.1054L31.5954 56.146L31.5954 22.6571L31.6157 22.6571Z" fill="#3CF2FD"/>
<path d="M48.483 41.319L46.4132 40.3453C43.1055 39.3717 41.4415 40.893 41.4415 44.9295L41.4415 59.25C41.4415 61.0958 41.0762 62.7794 40.3457 64.3007L51.3645 69.25L51.3645 46.7551C51.3848 44.5238 50.4311 42.6983 48.483 41.319Z" fill="#E8A139"/>
<path d="M31.6191 13.0626L31.6191 39.3507C31.7003 39.3101 32.9584 30.6286 40.8116 29.8375C42.7394 29.7361 44.6672 29.9795 46.5544 30.5271C52.6219 32.3121 61.2056 36.1458 61.2056 49.1275L61.2056 88.1539L66.3193 95.375L72.0012 88.1539L72.0012 37.7279C72.0012 30.02 69.4241 22.6164 60.7389 17.3831L41.4407 8.74214C41.461 8.76243 31.6191 4.19855 31.6191 13.0626Z" fill="#E8A139"/>
</svg>
