<svg width="44" height="43" viewBox="0 0 44 43" fill="none" xmlns="http://www.w3.org/2000/svg">
<mask id="mask0_1774_2001" style="mask-type:luminance" maskUnits="userSpaceOnUse" x="0" y="0" width="44" height="43">
<path d="M43.04 0H0.0400391V43H43.04V0Z" fill="white"/>
</mask>
<g mask="url(#mask0_1774_2001)">
<path opacity="0.99" fill-rule="evenodd" clip-rule="evenodd" d="M43 1.05081V1.13081C40 1.12081 37.01 1.13081 34.01 1.17081C35.26 1.18081 36.51 1.23081 37.75 1.30081C37.99 1.17081 38.19 1.23081 38.34 1.47081C39.49 2.42081 40.63 3.42081 41.78 4.49081C41.81 4.46081 41.84 4.43081 41.86 4.41081C42.2 4.88081 42.58 5.24081 42.99 5.50081V36.4108C41.74 36.4408 40.49 36.4108 39.25 36.3308C39.22 27.5408 39.19 18.7508 39.17 9.96081C38.88 8.91081 38.19 8.31081 37.11 8.15081C25.63 8.14081 14.15 8.09082 2.67999 8.02082C2.55999 7.78082 2.38999 7.57081 2.17999 7.39081C1.54999 6.90081 0.94999 6.39082 0.36999 5.84082C0.33999 6.02082 0.26999 6.05081 0.15999 5.92081C0.11999 5.79081 0.0599902 5.68081 -0.0100098 5.58081V3.57081C0.55999 2.21081 1.55999 1.38081 3.01999 1.09081C16.35 1.05081 29.67 1.03081 43 1.05081Z" fill="#F55B07"/>
<path opacity="0.96" fill-rule="evenodd" clip-rule="evenodd" d="M43 1.13089V5.50089C42.58 5.24089 42.21 4.87089 41.87 4.41089C41.84 4.44089 41.81 4.47089 41.79 4.49089C40.64 3.42089 39.49 2.41089 38.35 1.47089C38.2 1.23089 38 1.17089 37.76 1.30089C36.52 1.23089 35.27 1.19089 34.02 1.17089C37.02 1.13089 40.01 1.11089 43.01 1.13089H43Z" fill="#F55B07"/>
<path opacity="0.93" fill-rule="evenodd" clip-rule="evenodd" d="M2.68992 8.01984C1.48992 7.74984 0.649922 7.04984 0.169922 5.91984C0.279922 6.03984 0.349922 6.00984 0.379922 5.83984C0.959922 6.38984 1.55992 6.90984 2.18992 7.38984C2.40992 7.56984 2.57992 7.77984 2.68992 8.01984Z" fill="#F55B07"/>
<path fill-rule="evenodd" clip-rule="evenodd" d="M0 9.11133C0.75 9.57133 1.56 9.89133 2.44 10.0813C4.31 10.2013 6.19 10.2413 8.07 10.2113C7.22 10.2813 6.35 10.3213 5.47 10.3413C15.98 19.5613 26.49 28.7913 37.01 38.0113C37.02 38.4213 37.07 38.8113 37.14 39.1913V41.7913H0.92C0.52 41.7413 0.21 41.5513 0 41.2013V9.11133Z" fill="#2ACBFE"/>
<path opacity="0.99" fill-rule="evenodd" clip-rule="evenodd" d="M8.05996 10.2012H37.12V20.1112C35.9 20.0812 34.7 20.1112 33.51 20.1912C30.33 20.8412 28.62 22.7812 28.39 26.0312C28.71 29.6212 30.67 31.5612 34.27 31.8712C35.21 31.9512 36.16 31.9812 37.13 31.9512V39.1712C37.06 38.7912 37.02 38.4012 37 37.9912C26.48 28.7812 15.97 19.5512 5.45996 10.3312C6.33996 10.3212 7.20996 10.2712 8.05996 10.2012Z" fill="#2ACBFE"/>
<path opacity="0.04" fill-rule="evenodd" clip-rule="evenodd" d="M37.12 10.2012C37.2 13.5212 37.23 16.8512 37.2 20.1912H33.5C34.69 20.1112 35.89 20.0812 37.11 20.1112V10.2012H37.12Z" fill="#2ACBFE"/>
<path opacity="0.98" fill-rule="evenodd" clip-rule="evenodd" d="M37.12 22.3V29.69H33.5901C31.9101 29.31 30.8901 28.27 30.5201 26.58C30.3701 24.69 31.1401 23.33 32.8301 22.51C33.1301 22.39 33.4401 22.31 33.7501 22.26C34.8801 22.19 36.0001 22.2 37.1101 22.3H37.12Z" fill="#2ACBFE"/>
<path opacity="0.05" fill-rule="evenodd" clip-rule="evenodd" d="M37.1201 22.3008C37.2001 24.7808 37.2301 27.2708 37.2001 29.7708C35.9801 29.8008 34.7801 29.7708 33.5901 29.6908H37.1201V22.3008Z" fill="#2ACBFE"/>
<path opacity="0.03" fill-rule="evenodd" clip-rule="evenodd" d="M34.2699 31.8711H37.2099V41.8611C25.0999 41.8911 13.0099 41.8611 0.929932 41.7811H37.1199V31.9511C36.1499 31.9811 35.1999 31.9511 34.2599 31.8711H34.2699Z" fill="#2ACBFE"/>
</g>
</svg>
