<svg width="24" height="52" viewBox="0 0 24 52" fill="none" xmlns="http://www.w3.org/2000/svg">
<g clip-path="url(#clip0_1762_883)">
<path fill-rule="evenodd" clip-rule="evenodd" d="M6.72167 8.19393C18.4029 6.30293 21.7795 10.4 21.7795 20.2522C21.7353 22.0481 21.6938 31.1375 21.6496 32.9334C21.3308 34.3514 19.9561 34.8397 18.4029 34.3445C17.8235 34.1598 17.3453 33.7211 17.234 32.9334C17.1483 29.4263 17.06 18.6282 16.9743 15.121C16.9743 12.7636 13.6786 11.8181 10.8091 11.8181C5.44631 11.8181 4.51388 14.3513 4.51388 15.6341C4.33985 21.4503 4.33985 36.1447 4.51388 41.9609C4.62816 42.6997 4.8879 43.3822 5.2931 44.0133C6.1866 44.706 7.13725 45.3038 8.15024 45.8092C9.03336 48.5288 8.03855 49.6833 5.16323 49.2728C2.33725 48.1927 0.648942 46.1838 0.0982929 43.2437C-0.075733 36.5731 -0.0757331 21.0219 0.0982929 14.3513C1.07232 10.9879 3.28011 8.93539 6.72167 8.19393Z" fill="#EDFC41"/>
<path d="M12.64 49.4787L17.3778 35.2969H18.9636L14.1866 49.4787H12.64ZM11.0542 43.9704C10.1797 43.9704 9.44877 43.6073 8.86143 42.8811C8.28714 42.1548 8 41.0655 8 39.6131C8 38.188 8.28714 37.1193 8.86143 36.4068C9.44877 35.6805 10.1797 35.3174 11.0542 35.3174C11.9025 35.3174 12.6204 35.6805 13.2077 36.4068C13.8081 37.1193 14.1083 38.188 14.1083 39.6131C14.1083 41.0655 13.8081 42.1548 13.2077 42.8811C12.6204 43.6073 11.9025 43.9704 11.0542 43.9704ZM11.0542 42.655C11.511 42.655 11.8895 42.4083 12.1897 41.9151C12.5029 41.4218 12.6595 40.6544 12.6595 39.6131C12.6595 38.5991 12.5029 37.8455 12.1897 37.3522C11.8895 36.8589 11.511 36.6123 11.0542 36.6123C10.5843 36.6123 10.1993 36.8589 9.89906 37.3522C9.59886 37.8455 9.44877 38.5991 9.44877 39.6131C9.44877 40.6544 9.59886 41.4218 9.89906 41.9151C10.1993 42.4083 10.5843 42.655 11.0542 42.655ZM20.569 49.4787C19.6945 49.4787 18.9636 49.1156 18.3763 48.3894C17.802 47.6631 17.5149 46.5738 17.5149 45.1214C17.5149 43.6963 17.802 42.6276 18.3763 41.9151C18.9636 41.1888 19.6945 40.8257 20.569 40.8257C21.4174 40.8257 22.1353 41.1888 22.7226 41.9151C23.323 42.6276 23.6232 43.6963 23.6232 45.1214C23.6232 46.5738 23.323 47.6631 22.7226 48.3894C22.1353 49.1156 21.4174 49.4787 20.569 49.4787ZM20.569 48.1633C21.0258 48.1633 21.4044 47.9166 21.7045 47.4234C22.0178 46.9301 22.1744 46.1627 22.1744 45.1214C22.1744 44.1074 22.0178 43.3538 21.7045 42.8605C21.4044 42.3672 21.0258 42.1206 20.569 42.1206C20.0992 42.1206 19.7141 42.3672 19.4139 42.8605C19.1137 43.3538 18.9636 44.1074 18.9636 45.1214C18.9636 46.1627 19.1137 46.9301 19.4139 47.4234C19.7141 47.9166 20.0992 48.1633 20.569 48.1633Z" fill="#EDFC41"/>
</g>
<defs>
<clipPath id="clip0_1762_883">
<rect width="24" height="52" fill="white"/>
</clipPath>
</defs>
</svg>
